<svg width="25" height="25" viewBox="0 0 25 25" fill="none" xmlns="http://www.w3.org/2000/svg">
<path d="M12.0608 21.9658C17.0314 21.9658 21.0608 17.9364 21.0608 12.9658C21.0608 7.99526 17.0314 3.96582 12.0608 3.96582C7.09023 3.96582 3.06079 7.99526 3.06079 12.9658C3.06079 17.9364 7.09023 21.9658 12.0608 21.9658Z" stroke="#001A72" stroke-width="1.5" stroke-linecap="round" stroke-linejoin="round"/>
<path d="M9.06079 16.9658H12.0608H13.0608C13.7275 16.9658 15.0608 16.5658 15.0608 14.9658C15.0608 13.3658 13.7275 12.9658 13.0608 12.9658H11.0608C10.3941 12.9658 9.06079 12.5658 9.06079 10.9658C9.06079 9.36582 10.3941 8.96582 11.0608 8.96582H12.0608H15.0608" stroke="#001A72" stroke-width="1.5" stroke-linecap="round" stroke-linejoin="round"/>
<path d="M12.0608 16.9658V18.9658" stroke="#001A72" stroke-width="1.5" stroke-linecap="round" stroke-linejoin="round"/>
<path d="M12.0608 8.96582V6.96582" stroke="#001A72" stroke-width="1.5" stroke-linecap="round" stroke-linejoin="round"/>
</svg>
