<svg width="25" height="25" viewBox="0 0 25 25" fill="none" xmlns="http://www.w3.org/2000/svg">
<path d="M10.0052 10.6362L14.0053 14.6362" stroke="#001A72" stroke-width="1.5" stroke-linecap="round" stroke-linejoin="round"/>
<path d="M10.0052 10.6362L5.00679 15.6346C4.34814 16.2933 3.8281 17.0928 3.66979 18.0107C3.50994 18.9375 3.45674 20.0877 4.00523 20.6362C4.55373 21.1847 5.7039 21.1315 6.63072 20.9716C7.54863 20.8133 8.34814 20.2933 9.00679 19.6346L14.0052 14.6362C14.0052 14.6362 17.0052 11.6362 15.0052 9.63623C13.0052 7.63623 10.0052 10.6362 10.0052 10.6362Z" stroke="#001A72" stroke-width="1.5" stroke-linecap="round" stroke-linejoin="round"/>
<path d="M3.56079 12.4487C3.56079 5.94873 5.56079 3.94873 12.0608 3.94873C18.5608 3.94873 20.5608 5.94873 20.5608 12.4487C20.5608 18.9487 18.5608 20.9487 12.0608 20.9487" stroke="#001A72" stroke-width="1.5" stroke-linecap="round" stroke-linejoin="round"/>
</svg>
