<svg width="24" height="25" viewBox="0 0 24 25" fill="none" xmlns="http://www.w3.org/2000/svg">
<path d="M11 3.5H13C13.5523 3.5 14 3.94772 14 4.5V5.06879C14 5.49659 14.2871 5.86825 14.6822 6.03228C15.0775 6.19638 15.5377 6.13384 15.8403 5.83123L16.2426 5.42891C16.6331 5.03838 17.2663 5.03838 17.6568 5.42891L19.071 6.84312C19.4616 7.23365 19.4615 7.86681 19.071 8.25734L18.6688 8.6596C18.3661 8.96223 18.3036 9.42247 18.4677 9.81774C18.6317 10.2129 19.0034 10.5 19.4313 10.5H20C20.5523 10.5 21 10.9477 21 11.5V13.5C21 14.0523 20.5523 14.5 20 14.5H19.4312C19.0034 14.5 18.6318 14.7871 18.4677 15.1822C18.3036 15.5775 18.3661 16.0377 18.6688 16.3403L19.071 16.7426C19.4616 17.1331 19.4616 17.7663 19.071 18.1568L17.6568 19.571C17.2663 19.9616 16.6331 19.9616 16.2426 19.571L15.8403 19.1688C15.5377 18.8661 15.0775 18.8036 14.6822 18.9677C14.2871 19.1318 14 19.5034 14 19.9312V20.5C14 21.0523 13.5523 21.5 13 21.5H11C10.4477 21.5 10 21.0523 10 20.5V19.9313C10 19.5034 9.71287 19.1317 9.31774 18.9677C8.92247 18.8036 8.46223 18.8661 8.1596 19.1688L7.75732 19.571C7.36679 19.9616 6.73363 19.9616 6.34311 19.571L4.92889 18.1568C4.53837 17.7663 4.53837 17.1331 4.92889 16.7426L5.33123 16.3403C5.63384 16.0377 5.69638 15.5775 5.53228 15.1822C5.36825 14.7871 4.99659 14.5 4.56879 14.5H4C3.44772 14.5 3 14.0523 3 13.5V11.5C3 10.9477 3.44772 10.5 4 10.5H4.56877C4.99658 10.5 5.36825 10.2129 5.53229 9.81776C5.6964 9.4225 5.63386 8.96229 5.33123 8.65966L4.92891 8.25734C4.53838 7.86681 4.53838 7.23365 4.92891 6.84313L6.34312 5.42891C6.73365 5.03839 7.36681 5.03839 7.75734 5.42891L8.15966 5.83123C8.46228 6.13386 8.9225 6.1964 9.31776 6.03229C9.71288 5.86825 10 5.49658 10 5.06876V4.5C10 3.94772 10.4477 3.5 11 3.5Z" stroke="#001A72" stroke-width="1.5"/>
<path d="M14 12.5C14 13.6046 13.1046 14.5 12 14.5C10.8954 14.5 10 13.6046 10 12.5C10 11.3954 10.8954 10.5 12 10.5C13.1046 10.5 14 11.3954 14 12.5Z" stroke="#001A72" stroke-width="1.5"/>
</svg>
