<svg width="25" height="25" viewBox="0 0 25 25" fill="none" xmlns="http://www.w3.org/2000/svg">
<path d="M9.79398 10.9095C9.88355 10.5512 10.1633 10.2715 10.5216 10.1819L13.9795 9.31742C14.7118 9.13432 15.3752 9.79772 15.1921 10.5301L14.3277 13.9879C14.2381 14.3462 13.9583 14.626 13.6001 14.7155L10.1422 15.58C9.40981 15.7631 8.74641 15.0997 8.92951 14.3673L9.79398 10.9095Z" stroke="#001A72" stroke-width="1.5" stroke-linecap="round" stroke-linejoin="round"/>
<path d="M12.0608 3.94873C5.56079 3.94873 3.56079 5.94873 3.56079 12.4487C3.56079 18.9487 5.56079 20.9487 12.0608 20.9487C18.5608 20.9487 20.5608 18.9487 20.5608 12.4487C20.5608 5.94873 18.5608 3.94873 12.0608 3.94873Z" stroke="#001A72" stroke-width="1.5" stroke-linecap="round" stroke-linejoin="round"/>
</svg>
