<svg width="24" height="25" viewBox="0 0 24 25" fill="none" xmlns="http://www.w3.org/2000/svg">
<path d="M12 5.5C7.77778 5.5 4.08333 5.86111 3.55556 6.22222C3.16625 6.48859 2.77694 8.4339 2.59946 10.3334C2.53633 11.009 2.5 11.7421 2.5 12.5001C2.5 15.3889 3.02778 18.4167 3.55556 18.7778C4.08333 19.1389 7.77778 19.5 12 19.5C16.2222 19.5 19.9167 19.1389 20.4444 18.7778C20.7556 18.5649 21.0667 17.099 21.2697 15.7501C21.4111 14.8108 21.5 13.6859 21.5 12.5001C21.5 11.7421 21.4637 11.009 21.4005 10.3334C21.3649 9.95201 21.3207 9.58894 21.2697 9.25005C21.0667 7.90107 20.7556 6.43511 20.4444 6.22222C19.9167 5.86111 16.2222 5.5 12 5.5Z" stroke="#001A72" stroke-width="1.5" stroke-linecap="round" stroke-linejoin="round"/>
<path d="M21.31 9.5H14.0176C12.351 9.5 11 10.8431 11 12.5C11 14.1569 12.351 15.5 14.0176 15.5H21.31" stroke="#001A72" stroke-width="1.5" stroke-linecap="round" stroke-linejoin="round"/>
<path d="M14 12.5V12.51" stroke="#001A72" stroke-width="1.5" stroke-linecap="round" stroke-linejoin="round"/>
</svg>
